<svg width="25" height="25" viewBox="0 0 25 25" fill="none" xmlns="http://www.w3.org/2000/svg">
<path d="M12.5 11.8055C13.4615 11.8055 14.4013 11.5204 15.2007 10.9863C16.0001 10.4521 16.6232 9.69294 16.9911 8.80469C17.359 7.91644 17.4553 6.93903 17.2677 5.99607C17.0802 5.05311 16.6172 4.18694 15.9374 3.5071C15.2575 2.82726 14.3913 2.36429 13.4484 2.17672C12.5054 1.98915 11.528 2.08542 10.6398 2.45335C9.75151 2.82127 8.99231 3.44433 8.45816 4.24374C7.92401 5.04314 7.63892 5.98299 7.63892 6.94443C7.63892 8.23367 8.15107 9.47012 9.0627 10.3818C9.97434 11.2934 11.2108 11.8055 12.5 11.8055ZM12.5 3.4722C13.1868 3.4722 13.8581 3.67585 14.4291 4.05738C15.0001 4.43891 15.4451 4.9812 15.7079 5.61566C15.9707 6.25013 16.0395 6.94828 15.9055 7.62182C15.7716 8.29537 15.4409 8.91406 14.9553 9.39966C14.4697 9.88526 13.851 10.216 13.1774 10.3499C12.5039 10.4839 11.8057 10.4151 11.1713 10.1523C10.5368 9.88954 9.99451 9.44449 9.61298 8.87349C9.23145 8.30249 9.0278 7.63117 9.0278 6.94443C9.0278 6.02354 9.39363 5.14036 10.0448 4.48919C10.696 3.83803 11.5791 3.4722 12.5 3.4722V3.4722Z" fill="#5E81F4"/>
<path d="M21.1597 16.9236C20.0461 15.7465 18.704 14.809 17.2157 14.1682C15.7273 13.5274 14.1239 13.197 12.5035 13.197C10.8831 13.197 9.27965 13.5274 7.7913 14.1682C6.30294 14.809 4.96091 15.7465 3.84723 16.9236C3.60578 17.1815 3.47168 17.5217 3.47223 17.875V21.5278C3.47223 21.8961 3.61856 22.2494 3.87903 22.5099C4.13949 22.7703 4.49276 22.9167 4.86112 22.9167H20.1389C20.5073 22.9167 20.8605 22.7703 21.121 22.5099C21.3815 22.2494 21.5278 21.8961 21.5278 21.5278V17.875C21.5302 17.5227 21.3986 17.1826 21.1597 16.9236V16.9236ZM20.1389 21.5278H4.86112V17.8681C5.84531 16.8317 7.03007 16.0065 8.34331 15.4426C9.65655 14.8786 11.0708 14.5878 12.5 14.5878C13.9292 14.5878 15.3435 14.8786 16.6567 15.4426C17.9699 16.0065 19.1547 16.8317 20.1389 17.8681V21.5278Z" fill="#5E81F4"/>
</svg>
